<svg aria-hidden="true" style="width:0;height:0;position:absolute;overflow:hidden" xmlns="http://www.w3.org/2000/svg"><defs><symbol id="icon-burger" viewBox="0 0 32 32"><path stroke-linejoin="round" stroke-linecap="round" stroke-width="2" d="M28 13.333H4M28 8H4m24 10.667H4M28 24H4"/></symbol><symbol id="shopping-cart" viewBox="0 0 24 24"><path stroke-linejoin="round" stroke-linecap="round" stroke-width="2" d="M9 22a1 1 0 0 0 0-2 1 1 0 0 0 0 2zm11 0a1 1 0 0 0 0-2 1 1 0 0 0 0 2z"/><path stroke-linejoin="round" stroke-linecap="round" stroke-width="1.8" d="M1 1h4l2.68 13.39c.188.925.995 1.61 1.962 1.61h.04-.002H19.438a2 2 0 0 0 1.959-1.597l.002-.013 1.6-8.39h-17"/></symbol><symbol id="icon-x" viewBox="0 0 32 32"><path fill="none" stroke="#f8f8f8" style="stroke:var(--color1,#f8f8f8)" stroke-linejoin="round" stroke-linecap="round" stroke-width="2" d="M24 8 8 24M8 8l16 16"/></symbol><symbol id="icon-search" viewBox="0 0 18 18"><path style="fill:var(--color1,#fff)" opacity=".5" d="m16.283 15.218-2.783-2.76a6.75 6.75 0 1 0-1.029 1.032l-.013.01 2.76 2.76a.747.747 0 0 0 1.064 0 .748.748 0 0 0-.001-1.042zM8.25 13.5a5.25 5.25 0 0 1 0-10.5 5.25 5.25 0 0 1 0 10.5z"/></symbol></defs></svg>