<svg xmlns="http://www.w3.org/2000/svg" fill="none" viewBox="0 0 24 24"><path d="M0.760 0.155 C 0.508 0.184,0.313 0.303,0.209 0.493 C 0.104 0.685,0.111 1.331,0.220 1.516 C 0.420 1.855,0.533 1.874,2.360 1.878 C 3.053 1.879,3.765 1.892,3.942 1.906 L 4.264 1.931 5.497 8.070 C 6.175 11.446,6.774 14.391,6.828 14.614 C 6.952 15.119,7.099 15.434,7.376 15.786 C 7.743 16.252,8.171 16.555,8.735 16.748 L 9.060 16.860 14.560 16.860 L 20.060 16.860 20.420 16.719 C 21.041 16.476,21.519 16.092,21.865 15.556 C 22.208 15.027,22.136 15.341,23.281 9.340 C 23.631 7.508,23.885 6.075,23.886 5.931 C 23.890 5.604,23.794 5.418,23.540 5.260 L 23.346 5.140 15.046 5.120 L 6.745 5.100 6.334 3.080 C 5.771 0.308,5.811 0.447,5.503 0.246 L 5.340 0.140 3.160 0.135 C 1.961 0.132,0.881 0.141,0.760 0.155 M21.134 6.907 L 21.887 6.933 21.860 7.116 C 21.753 7.833,20.504 14.253,20.436 14.431 C 20.358 14.636,20.123 14.872,19.873 14.997 L 19.627 15.120 14.544 15.119 C 9.580 15.118,9.456 15.116,9.287 15.040 C 8.783 14.811,8.677 14.638,8.476 13.708 C 8.285 12.827,7.120 7.038,7.120 6.971 C 7.120 6.939,7.228 6.919,7.450 6.910 C 8.093 6.884,20.392 6.881,21.134 6.907 M8.568 19.061 C 7.848 19.217,7.254 19.801,7.061 20.542 C 6.780 21.623,7.540 22.759,8.682 22.963 C 9.594 23.126,10.577 22.539,10.876 21.653 C 11.259 20.516,10.576 19.306,9.411 19.059 C 9.082 18.989,8.898 18.990,8.568 19.061 M19.568 19.061 C 18.848 19.217,18.254 19.801,18.061 20.542 C 17.780 21.623,18.540 22.759,19.682 22.963 C 20.594 23.126,21.577 22.539,21.876 21.653 C 22.259 20.516,21.576 19.306,20.411 19.059 C 20.082 18.989,19.898 18.990,19.568 19.061 " fill="#050505" stroke="none" fill-rule="evenodd"></path></svg>