<svg aria-hidden="true" style="position: absolute; width: 0; height: 0; overflow: hidden;" version="1.1" xmlns="http://www.w3.org/2000/svg" xmlns:xlink="http://www.w3.org/1999/xlink">
<defs>
<symbol id="icon-burger" viewBox="0 0 32 32">
<path stroke-linejoin="round" stroke-linecap="round" stroke-miterlimit="4" stroke-width="2" d="M28 13.333h-24M28 8h-24M28 18.667h-24M28 24h-24"></path>
</symbol>
<symbol id="shopping-cart" viewBox="0 0 24 24">
<path stroke-linejoin="round" stroke-linecap="round" stroke-miterlimit="4" stroke-width="2" d="M9 22c0.552 0 1-0.448 1-1s-0.448-1-1-1v0c-0.552 0-1 0.448-1 1s0.448 1 1 1v0zM20 22c0.552 0 1-0.448 1-1s-0.448-1-1-1v0c-0.552 0-1 0.448-1 1s0.448 1 1 1v0z"></path>
<path stroke-linejoin="round" stroke-linecap="round" stroke-miterlimit="4" stroke-width="1.8" d="M1 1h4l2.68 13.39c0.188 0.925 0.995 1.61 1.962 1.61 0.013 0 0.027-0 0.040-0l-0.002 0h9.72c0.011 0 0.025 0 0.038 0 0.967 0 1.773-0.686 1.959-1.597l0.002-0.013 1.6-8.39h-17"></path>
</symbol>
<symbol id="icon-x" viewBox="0 0 32 32">
<path fill="none" stroke="#f8f8f8" style="stroke: var(--color1, #f8f8f8)" stroke-linejoin="round" stroke-linecap="round" stroke-miterlimit="4" stroke-width="2" d="M24 8l-16 16M8 8l16 16"></path>
</symbol>
<symbol id="icon-search" viewBox="0 0 18 18">
<path style="fill: var(--color1, #fff)" opacity="0.5" d="M16.283 15.218l-2.783-2.76c0.925-1.145 1.485-2.619 1.485-4.223 0-3.728-3.022-6.75-6.75-6.75s-6.75 3.022-6.75 6.75c0 3.728 3.022 6.75 6.75 6.75 1.604 0 3.078-0.56 4.236-1.495l-0.013 0.010 2.76 2.76c0.136 0.137 0.324 0.222 0.532 0.222s0.397-0.085 0.532-0.222l0-0c0.13-0.135 0.21-0.318 0.21-0.521s-0.080-0.386-0.211-0.521l0 0zM8.25 13.5c-2.899 0-5.25-2.351-5.25-5.25s2.351-5.25 5.25-5.25v0c2.899 0 5.25 2.351 5.25 5.25s-2.351 5.25-5.25 5.25v0z"></path>
</symbol>
</defs>
</svg>
